<svg width="25" height="25" viewBox="0 0 20 21" fill="none" xmlns="http://www.w3.org/2000/svg">
<path d="M9.93878 0.0999999L17.9183 15.8475C19.2658 14.1357 19.999 12.0206 20 9.842C20 4.39875 15.5305 0 10 0C4.46953 0 2.47487e-05 4.39875 2.47487e-05 9.842C-0.00480901 11.9774 0.698558 14.0542 2.00003 15.7473L9.93878 0.0999999Z" fill="#2C4152"/>
<path d="M7.09375 12.4297H12.79L9.94175 6.7334L7.09375 12.4297Z" fill="#2C4152"/>
<path d="M14.3878 15H6.43525L5 18.1525C6.52987 19.3794 8.42937 20.0534 10.3904 20.0653C12.3514 20.0771 14.2589 19.4261 15.8035 18.2178L14.3878 15Z" fill="#2C4152"/>
</svg>
