<svg width="107" height="36" viewBox="0 0 107 36" fill="none" xmlns="http://www.w3.org/2000/svg">
<path d="M98.0749 0.000117H8.49062C8.16407 0.000117 7.84145 0.000117 7.51576 0.00191699C7.24314 0.00371699 6.97268 0.00894597 6.69744 0.013347C6.09948 0.0204586 5.50293 0.0736254 4.91297 0.172385C4.32384 0.273295 3.75316 0.46354 3.22024 0.736684C2.68797 1.01214 2.20162 1.37006 1.77883 1.79747C1.35383 2.22368 0.999552 2.71632 0.72963 3.25645C0.458963 3.7955 0.271282 4.37315 0.173068 4.96943C0.0739211 5.56497 0.0205691 6.16737 0.0134911 6.77123C0.00522723 7.04717 0.00435454 7.32402 0 7.6V28.4028C0.00435454 28.6822 0.00522723 28.9529 0.0134911 29.2325C0.0205712 29.8363 0.0739233 30.4387 0.173068 31.0342C0.271011 31.6308 0.458703 32.2088 0.72963 32.748C0.999429 33.2864 1.35375 33.7771 1.77883 34.2009C2.20002 34.6302 2.68668 34.9884 3.22024 35.2617C3.75316 35.5356 4.32377 35.727 4.91297 35.8294C5.50303 35.9274 6.09952 35.9806 6.69744 35.9886C6.97268 35.9947 7.24314 35.9982 7.51576 35.9982C7.84144 36 8.16409 36 8.49062 36H98.0749C98.3949 36 98.7201 36 99.0402 35.9982C99.3115 35.9982 99.5898 35.9947 99.8611 35.9886C100.458 35.981 101.053 35.9278 101.642 35.8294C102.233 35.7263 102.806 35.5349 103.341 35.2617C103.874 34.9882 104.361 34.6301 104.781 34.2009C105.205 33.7754 105.561 33.2851 105.834 32.748C106.103 32.2084 106.288 31.6305 106.385 31.0342C106.484 30.4386 106.54 29.8364 106.55 29.2325C106.554 28.9529 106.554 28.6822 106.554 28.4028C106.561 28.0758 106.561 27.7506 106.561 27.4183V8.58261C106.561 8.25302 106.561 7.92607 106.554 7.6C106.554 7.32402 106.554 7.04717 106.55 6.77119C106.54 6.16728 106.484 5.56501 106.385 4.9694C106.288 4.37346 106.102 3.79586 105.834 3.25641C105.284 2.17379 104.412 1.29254 103.341 0.736603C102.806 0.464126 102.233 0.273932 101.642 0.172304C101.053 0.0731093 100.458 0.0199239 99.8611 0.013221C99.5898 0.00882897 99.3115 0.00355499 99.0402 0.00179999C98.7201 0 98.3949 0 98.0749 0V0.000117Z" fill="#A6A6A6"/>
<path d="M7.52004 35.213C7.24872 35.213 6.98396 35.2095 6.71477 35.2034C6.15712 35.196 5.60078 35.1469 5.0503 35.0566C4.53701 34.9672 4.03977 34.801 3.57498 34.5635C3.11445 34.3279 2.69441 34.0189 2.33095 33.6485C1.96223 33.2825 1.65526 32.8579 1.42219 32.3917C1.18655 31.9224 1.02348 31.4194 0.938649 30.9002C0.847038 30.3423 0.797473 29.7782 0.790381 29.2127C0.784735 29.0229 0.777344 28.3909 0.777344 28.3909V7.60047C0.777344 7.60047 0.785216 6.9782 0.790425 6.79539C0.797216 6.2308 0.846493 5.66756 0.937829 5.11053C1.02282 4.5899 1.18602 4.08545 1.42178 3.61464C1.65399 3.14873 1.95926 2.72385 2.32576 2.35649C2.69185 1.98564 3.11323 1.67513 3.57454 1.43627C4.03826 1.19947 4.53457 1.03444 5.04682 0.946728C5.59911 0.855438 6.15738 0.806082 6.71696 0.799075L7.52047 0.788086H99.0357L99.8488 0.799516C100.403 0.806175 100.957 0.855091 101.504 0.945846C102.021 1.03466 102.523 1.20084 102.992 1.43891C103.916 1.92027 104.668 2.68183 105.142 3.61684C105.374 4.0844 105.535 4.58473 105.619 5.10086C105.711 5.66246 105.763 6.23013 105.774 6.79935C105.776 7.05423 105.776 7.32801 105.776 7.60047C105.783 7.93797 105.783 8.25921 105.783 8.58308V27.4188C105.783 27.7458 105.783 28.0648 105.776 28.3865C105.776 28.6792 105.776 28.9473 105.773 29.2232C105.762 29.7823 105.711 30.3398 105.621 30.8914C105.537 31.4143 105.375 31.9213 105.14 32.3944C104.905 32.8555 104.6 33.2764 104.235 33.6415C103.871 34.0139 103.451 34.3246 102.989 34.5617C102.521 34.8011 102.021 34.9679 101.504 35.0566C100.953 35.1474 100.397 35.1965 99.8392 35.2034C99.5784 35.2095 99.3053 35.213 99.0401 35.213L98.0748 35.2148L7.52004 35.213Z" fill="black"/>
<path d="M22.0569 18.2711C22.0664 17.5199 22.2639 16.7833 22.6308 16.13C22.9977 15.4766 23.5221 14.9277 24.1554 14.5342C23.7531 13.9536 23.2224 13.4757 22.6055 13.1386C21.9885 12.8015 21.3023 12.6145 20.6013 12.5923C19.1059 12.4337 17.6562 13.4967 16.8942 13.4967C16.1174 13.4967 14.9442 12.6081 13.6808 12.6343C12.8636 12.661 12.0672 12.9012 11.3692 13.3314C10.6712 13.7617 10.0953 14.3673 9.69771 15.0894C7.97549 18.103 9.26011 22.5319 10.9099 24.9678C11.7353 26.1607 12.6999 27.4931 13.9622 27.4458C15.1973 27.394 15.6586 26.6498 17.1496 26.6498C18.6267 26.6498 19.0595 27.4458 20.3474 27.4158C21.6728 27.394 22.5078 26.2177 23.3043 25.0135C23.8973 24.1636 24.3537 23.2243 24.6564 22.2303C23.8864 21.9011 23.2293 21.3502 22.767 20.6461C22.3047 19.9421 22.0578 19.116 22.0569 18.2711Z" fill="white"/>
<path d="M19.6249 10.9902C20.3476 10.1134 20.7036 8.98644 20.6174 7.84863C19.5133 7.96583 18.4935 8.49913 17.7611 9.34228C17.403 9.75418 17.1287 10.2334 16.9539 10.7525C16.7792 11.2715 16.7074 11.8204 16.7426 12.3675C17.2948 12.3733 17.8412 12.2523 18.3404 12.0137C18.8397 11.7751 19.2789 11.4252 19.6249 10.9902Z" fill="white"/>
<path d="M37.6704 24.4259H33.4553L32.4431 27.4467H30.6577L34.6502 16.2705H36.5051L40.4975 27.4467H38.6818L37.6704 24.4259ZM33.8919 23.0319H37.233L35.5859 18.1294H35.5398L33.8919 23.0319Z" fill="white"/>
<path d="M49.1194 23.3733C49.1194 25.9054 47.7784 27.5322 45.7548 27.5322C45.2422 27.5593 44.7324 27.44 44.2837 27.1879C43.8351 26.9358 43.4658 26.561 43.2181 26.1066H43.1798V30.1426H41.5249V19.2987H43.1268V20.6539H43.1572C43.4163 20.2017 43.7919 19.829 44.2439 19.5753C44.696 19.3216 45.2076 19.1966 45.7244 19.2134C47.7706 19.2134 49.1194 20.8482 49.1194 23.3733ZM47.4184 23.3733C47.4184 21.7236 46.5748 20.639 45.2878 20.639C44.0234 20.639 43.1729 21.7464 43.1729 23.3733C43.1729 25.0151 44.0234 26.1146 45.2878 26.1146C46.5749 26.1146 47.4184 25.0379 47.4184 23.3733Z" fill="white"/>
<path d="M57.9939 23.3733C57.9939 25.9054 56.6529 27.5322 54.6293 27.5322C54.1167 27.5593 53.6069 27.44 53.1583 27.1879C52.7096 26.9357 52.3403 26.561 52.0926 26.1066H52.0543V30.1426H50.3994V19.2987H52.0013V20.6539H52.0317C52.2908 20.2017 52.6663 19.8289 53.1184 19.5753C53.5704 19.3216 54.0821 19.1966 54.5988 19.2134C56.6451 19.2134 57.9939 20.8482 57.9939 23.3733ZM56.2929 23.3733C56.2929 21.7236 55.4494 20.639 54.1623 20.639C52.8979 20.639 52.0474 21.7464 52.0474 23.3733C52.0474 25.0151 52.8979 26.1146 54.1623 26.1146C55.4494 26.1146 56.2929 25.0379 56.2929 23.3733H56.2929Z" fill="white"/>
<path d="M63.8586 24.3325C63.9812 25.4408 65.0465 26.1685 66.5023 26.1685C67.8972 26.1685 68.9007 25.4408 68.9007 24.4415C68.9007 23.574 68.2954 23.0546 66.8623 22.6986L65.4292 22.3497C63.3986 21.854 62.4559 20.8942 62.4559 19.3368C62.4559 17.4085 64.1186 16.084 66.4797 16.084C68.8163 16.084 70.4182 17.4085 70.4721 19.3368H68.8015C68.7015 18.2215 67.7893 17.5482 66.4562 17.5482C65.123 17.5482 64.2108 18.2294 64.2108 19.2208C64.2108 20.0109 64.7934 20.4759 66.2188 20.8318L67.4371 21.1341C69.706 21.6764 70.6486 22.5975 70.6486 24.2323C70.6486 26.3232 69.0007 27.6327 66.3796 27.6327C63.9273 27.6327 62.2715 26.3539 62.1646 24.3325L63.8586 24.3325Z" fill="white"/>
<path d="M74.2198 17.3701V19.2984H75.7529V20.6229H74.2198V25.115C74.2198 25.8129 74.5267 26.1381 75.2007 26.1381C75.3827 26.1349 75.5644 26.1219 75.7451 26.0994V27.416C75.4421 27.4732 75.1341 27.4991 74.8259 27.4933C73.1936 27.4933 72.557 26.8737 72.557 25.2934V20.6229H71.3848V19.2984H72.557V17.3701H74.2198Z" fill="white"/>
<path d="M76.6411 23.373C76.6411 20.8093 78.1351 19.1982 80.4649 19.1982C82.8025 19.1982 84.2895 20.8092 84.2895 23.373C84.2895 25.9438 82.8103 27.5478 80.4649 27.5478C78.1203 27.5478 76.6411 25.9438 76.6411 23.373ZM82.6033 23.373C82.6033 21.6143 81.8058 20.5764 80.4649 20.5764C79.1239 20.5764 78.3273 21.6223 78.3273 23.373C78.3273 25.1387 79.1239 26.1688 80.4649 26.1688C81.8058 26.1688 82.6033 25.1387 82.6033 23.373H82.6033Z" fill="white"/>
<path d="M85.6533 19.2986H87.2317V20.6855H87.27C87.3768 20.2523 87.6279 19.8695 87.981 19.6014C88.3342 19.3333 88.7679 19.1963 89.2093 19.2133C89.4 19.2127 89.5902 19.2336 89.7763 19.2757V20.8402C89.5355 20.7658 89.2844 20.7317 89.0327 20.7391C88.7923 20.7293 88.5526 20.7721 88.3301 20.8647C88.1077 20.9573 87.9076 21.0975 87.7438 21.2756C87.58 21.4537 87.4562 21.6655 87.381 21.8965C87.3058 22.1275 87.281 22.3722 87.3082 22.6138V27.4469H85.6533L85.6533 19.2986Z" fill="white"/>
<path d="M97.4069 25.0535C97.1843 26.5327 95.759 27.5478 93.9354 27.5478C91.59 27.5478 90.1343 25.9596 90.1343 23.4117C90.1343 20.8559 91.5978 19.1982 93.8658 19.1982C96.0964 19.1982 97.4991 20.7469 97.4991 23.2175V23.7905H91.8048V23.8916C91.7785 24.1915 91.8157 24.4936 91.9138 24.7778C92.0119 25.0621 92.1688 25.322 92.3739 25.5403C92.579 25.7586 92.8277 25.9302 93.1036 26.0439C93.3794 26.1576 93.676 26.2107 93.9737 26.1996C94.3647 26.2366 94.7572 26.1451 95.0927 25.9386C95.4281 25.7321 95.6887 25.4217 95.8355 25.0535L97.4069 25.0535ZM91.8127 22.6216H95.8434C95.8582 22.3519 95.8178 22.0821 95.7245 21.829C95.6313 21.5759 95.4874 21.345 95.3017 21.1509C95.116 20.9567 94.8926 20.8034 94.6455 20.7006C94.3984 20.5978 94.133 20.5477 93.8658 20.5535C93.5963 20.5519 93.3292 20.6042 93.0798 20.7075C92.8304 20.8108 92.6038 20.9629 92.4129 21.1552C92.222 21.3475 92.0707 21.576 91.9677 21.8277C91.8646 22.0794 91.812 22.3492 91.8127 22.6216V22.6216Z" fill="white"/>
<path d="M33.6834 7.85863C34.0304 7.83347 34.3785 7.88644 34.7028 8.01373C35.027 8.14102 35.3193 8.33945 35.5584 8.59472C35.7976 8.84998 35.9778 9.1557 36.0859 9.48985C36.194 9.82399 36.2274 10.1782 36.1836 10.527C36.1836 12.2426 35.2662 13.2288 33.6834 13.2288H31.7642V7.85863H33.6834ZM32.5894 12.4693H33.5912C33.8392 12.4843 34.0873 12.4432 34.3175 12.3491C34.5477 12.2549 34.7543 12.1101 34.9221 11.925C35.09 11.74 35.2149 11.5195 35.2878 11.2796C35.3607 11.0396 35.3798 10.7863 35.3435 10.5379C35.3771 10.2906 35.3562 10.0388 35.2821 9.80058C35.2081 9.56239 35.0829 9.34369 34.9154 9.16015C34.7479 8.97661 34.5424 8.83279 34.3135 8.73897C34.0845 8.64516 33.8379 8.60369 33.5912 8.61752H32.5894V12.4693Z" fill="white"/>
<path d="M37.1154 11.2004C37.0902 10.9341 37.1203 10.6654 37.2039 10.4115C37.2875 10.1576 37.4226 9.92422 37.6006 9.72624C37.7787 9.52826 37.9957 9.37007 38.2378 9.26182C38.4799 9.15357 38.7417 9.09766 39.0064 9.09766C39.2711 9.09766 39.5329 9.15357 39.775 9.26182C40.0171 9.37007 40.2341 9.52826 40.4121 9.72624C40.5902 9.92422 40.7253 10.1576 40.8089 10.4115C40.8925 10.6654 40.9226 10.9341 40.8974 11.2004C40.9231 11.467 40.8933 11.7361 40.81 11.9903C40.7266 12.2446 40.5916 12.4784 40.4135 12.6768C40.2354 12.8752 40.0182 13.0337 39.7759 13.1422C39.5335 13.2507 39.2714 13.3067 39.0064 13.3067C38.7414 13.3067 38.4793 13.2507 38.2369 13.1422C37.9946 13.0337 37.7774 12.8752 37.5993 12.6768C37.4212 12.4784 37.2862 12.2446 37.2028 11.9903C37.1195 11.7361 37.0897 11.467 37.1154 11.2004ZM40.0834 11.2004C40.0834 10.3219 39.693 9.80821 39.0077 9.80821C38.3198 9.80821 37.9329 10.3219 37.9329 11.2004C37.9329 12.0859 38.3199 12.5957 39.0077 12.5957C39.693 12.5956 40.0834 12.0824 40.0834 11.2004H40.0834Z" fill="white"/>
<path d="M45.9247 13.2284H45.1038L44.275 10.2436H44.2124L43.3871 13.2284H42.574L41.4688 9.17578H42.2714L42.9897 12.2682H43.0489L43.8733 9.17578H44.6325L45.4569 12.2682H45.5195L46.2343 9.17578H47.0257L45.9247 13.2284Z" fill="white"/>
<path d="M47.9561 9.17597H48.7178V9.81976H48.777C48.8773 9.58853 49.0465 9.3947 49.261 9.26528C49.4755 9.13585 49.7246 9.07728 49.9736 9.09774C50.1687 9.08291 50.3646 9.11265 50.5468 9.18473C50.729 9.25682 50.8928 9.36941 51.0261 9.51417C51.1594 9.65893 51.2588 9.83214 51.3168 10.021C51.3749 10.2098 51.3902 10.4094 51.3615 10.6051V13.2285H50.5702V10.8059C50.5702 10.1546 50.2901 9.83075 49.7049 9.83075C49.5724 9.82452 49.4402 9.8473 49.3172 9.89755C49.1943 9.9478 49.0836 10.0243 48.9926 10.1219C48.9017 10.2194 48.8327 10.3357 48.7904 10.4627C48.748 10.5897 48.7334 10.7245 48.7474 10.8577V13.2286H47.9561L47.9561 9.17597Z" fill="white"/>
<path d="M52.6226 7.59375H53.4139V13.2284H52.6226V7.59375Z" fill="white"/>
<path d="M54.5133 11.2005C54.4881 10.9341 54.5183 10.6654 54.6019 10.4115C54.6855 10.1577 54.8206 9.92424 54.9987 9.72625C55.1768 9.52826 55.3938 9.37007 55.6359 9.26182C55.878 9.15357 56.1398 9.09766 56.4046 9.09766C56.6693 9.09766 56.9311 9.15357 57.1732 9.26182C57.4153 9.37007 57.6323 9.52826 57.8104 9.72625C57.9885 9.92424 58.1236 10.1577 58.2072 10.4115C58.2908 10.6654 58.321 10.9341 58.2958 11.2005C58.3214 11.4671 58.2916 11.7362 58.2083 11.9904C58.1249 12.2447 57.9898 12.4785 57.8117 12.6769C57.6336 12.8753 57.4164 13.0338 57.174 13.1423C56.9317 13.2507 56.6696 13.3068 56.4046 13.3068C56.1395 13.3068 55.8774 13.2507 55.6351 13.1423C55.3927 13.0338 55.1755 12.8753 54.9974 12.6769C54.8193 12.4785 54.6842 12.2447 54.6008 11.9904C54.5175 11.7362 54.4877 11.4671 54.5133 11.2005ZM57.4814 11.2005C57.4814 10.322 57.0909 9.80829 56.4056 9.80829C55.7178 9.80829 55.3308 10.322 55.3308 11.2005C55.3308 12.086 55.7178 12.5957 56.4056 12.5957C57.0909 12.5957 57.4814 12.0824 57.4814 11.2005H57.4814Z" fill="white"/>
<path d="M59.1294 12.0824C59.1294 11.3529 59.6668 10.9324 60.6208 10.8726L61.707 10.8093V10.4595C61.707 10.0315 61.4269 9.78979 60.886 9.78979C60.4443 9.78979 60.1382 9.95371 60.0503 10.2402H59.2842C59.3651 9.54414 60.0129 9.09766 60.9226 9.09766C61.9278 9.09766 62.4948 9.60346 62.4948 10.4595V13.2285H61.733V12.659H61.6704C61.5433 12.8633 61.3649 13.0298 61.1533 13.1416C60.9417 13.2534 60.7045 13.3064 60.466 13.2953C60.2977 13.313 60.1275 13.2948 59.9666 13.242C59.8056 13.1892 59.6574 13.1028 59.5314 12.9886C59.4055 12.8743 59.3047 12.7346 59.2354 12.5785C59.1662 12.4225 59.1301 12.2535 59.1294 12.0824ZM61.707 11.7361V11.3973L60.7278 11.4606C60.1755 11.4979 59.9251 11.6878 59.9251 12.045C59.9251 12.4098 60.2382 12.622 60.6687 12.622C60.7948 12.635 60.9222 12.6221 61.0433 12.5842C61.1644 12.5463 61.2768 12.4842 61.3736 12.4015C61.4705 12.3189 61.5499 12.2174 61.6072 12.1031C61.6645 11.9887 61.6984 11.864 61.707 11.7361Z" fill="white"/>
<path d="M63.5347 11.2003C63.5347 9.91978 64.186 9.10855 65.1991 9.10855C65.4497 9.09688 65.6984 9.15755 65.9162 9.28345C66.1339 9.40935 66.3117 9.5953 66.4288 9.81955H66.4879V7.59375H67.2793V13.2284H66.521V12.5881H66.4584C66.3323 12.8109 66.1483 12.9945 65.9263 13.1191C65.7044 13.2438 65.4529 13.3046 65.1991 13.2952C64.1791 13.2952 63.5347 12.484 63.5347 11.2003ZM64.3521 11.2003C64.3521 12.0599 64.753 12.5771 65.4235 12.5771C66.0905 12.5771 66.5027 12.0525 66.5027 11.2039C66.5027 10.3592 66.0862 9.82706 65.4235 9.82706C64.7574 9.82706 64.3521 10.3478 64.3521 11.2003H64.3521Z" fill="white"/>
<path d="M70.5534 11.2004C70.5282 10.9341 70.5583 10.6654 70.6419 10.4115C70.7254 10.1576 70.8606 9.92422 71.0386 9.72624C71.2167 9.52826 71.4337 9.37007 71.6758 9.26182C71.9179 9.15357 72.1797 9.09766 72.4444 9.09766C72.7091 9.09766 72.9709 9.15357 73.213 9.26182C73.4551 9.37007 73.6721 9.52826 73.8501 9.72624C74.0282 9.92422 74.1633 10.1576 74.2469 10.4115C74.3304 10.6654 74.3606 10.9341 74.3354 11.2004C74.3611 11.467 74.3313 11.7361 74.2479 11.9903C74.1646 12.2446 74.0295 12.4784 73.8514 12.6768C73.6734 12.8752 73.4562 13.0337 73.2138 13.1422C72.9715 13.2507 72.7094 13.3067 72.4444 13.3067C72.1794 13.3067 71.9172 13.2507 71.6749 13.1422C71.4326 13.0337 71.2154 12.8752 71.0373 12.6768C70.8592 12.4784 70.7242 12.2446 70.6408 11.9903C70.5575 11.7361 70.5277 11.467 70.5534 11.2004ZM73.5214 11.2004C73.5214 10.3219 73.1309 9.80821 72.4457 9.80821C71.7578 9.80821 71.3709 10.3219 71.3709 11.2004C71.3709 12.0859 71.7578 12.5957 72.4457 12.5957C73.131 12.5956 73.5214 12.0824 73.5214 11.2004Z" fill="white"/>
<path d="M75.3979 9.17597H76.1597V9.81976H76.2189C76.3192 9.58853 76.4884 9.3947 76.7029 9.26528C76.9174 9.13585 77.1665 9.07728 77.4155 9.09774C77.6106 9.08291 77.8065 9.11265 77.9887 9.18473C78.1709 9.25682 78.3347 9.36941 78.468 9.51417C78.6013 9.65893 78.7007 9.83214 78.7587 10.021C78.8168 10.2098 78.8321 10.4094 78.8034 10.6051V13.2285H78.0121V10.8059C78.0121 10.1546 77.732 9.83075 77.1468 9.83075C77.0143 9.82452 76.8821 9.8473 76.7591 9.89755C76.6362 9.9478 76.5255 10.0243 76.4345 10.1219C76.3436 10.2194 76.2746 10.3357 76.2322 10.4627C76.1899 10.5897 76.1753 10.7245 76.1893 10.8577V13.2286H75.3979V9.17597Z" fill="white"/>
<path d="M83.2745 8.16699V9.19443H84.1433V9.86811H83.2745V11.952C83.2745 12.3765 83.4476 12.5624 83.8415 12.5624C83.9424 12.5621 84.0431 12.5559 84.1433 12.5439V13.2101C84.0012 13.2358 83.8572 13.2495 83.7128 13.251C82.8327 13.251 82.4823 12.9381 82.4823 12.1568V9.86808H81.8457V9.19439H82.4823V8.16699H83.2745Z" fill="white"/>
<path d="M85.2246 7.59375H86.009V9.82705H86.0716C86.1768 9.59366 86.3507 9.39873 86.5695 9.26882C86.7883 9.1389 87.0414 9.08033 87.2943 9.10107C87.4884 9.0904 87.6824 9.12315 87.8625 9.19699C88.0427 9.27082 88.2045 9.38393 88.3364 9.52823C88.4683 9.67254 88.567 9.84448 88.6256 10.0318C88.6842 10.2191 88.7011 10.4172 88.6753 10.6119V13.2284H87.8831V10.8092C87.8831 10.1619 87.5848 9.83407 87.0256 9.83407C86.8896 9.82279 86.7528 9.84169 86.6248 9.88944C86.4968 9.93719 86.3806 10.0126 86.2844 10.1105C86.1883 10.2084 86.1144 10.3263 86.068 10.456C86.0217 10.5857 86.0039 10.7241 86.016 10.8615V13.2284H85.2246L85.2246 7.59375Z" fill="white"/>
<path d="M93.2895 12.1343C93.182 12.5047 92.949 12.8251 92.6314 13.0394C92.3138 13.2538 91.9317 13.3484 91.552 13.3068C91.2878 13.3138 91.0253 13.2627 90.7826 13.1569C90.54 13.0511 90.323 12.8933 90.1468 12.6942C89.9705 12.4952 89.8393 12.2598 89.7621 12.0044C89.6849 11.7489 89.6636 11.4796 89.6997 11.215C89.6645 10.9496 89.6862 10.6797 89.7632 10.4235C89.8402 10.1673 89.9708 9.93077 90.1461 9.73001C90.3214 9.52924 90.5374 9.36889 90.7793 9.2598C91.0213 9.15071 91.2836 9.09544 91.5485 9.09772C92.6643 9.09772 93.3373 9.86812 93.3373 11.1407V11.4198H90.5059V11.4646C90.4935 11.6133 90.512 11.763 90.5602 11.9041C90.6084 12.0452 90.6852 12.1745 90.7857 12.2838C90.8863 12.3931 91.0083 12.48 91.144 12.5389C91.2797 12.5977 91.4261 12.6273 91.5737 12.6256C91.763 12.6486 91.9548 12.6141 92.1247 12.5266C92.2946 12.4392 92.4349 12.3026 92.5277 12.1343L93.2895 12.1343ZM90.5058 10.8283H92.5312C92.5412 10.6923 92.5229 10.5557 92.4775 10.4272C92.4321 10.2988 92.3607 10.1813 92.2677 10.0825C92.1747 9.98358 92.0624 9.90546 91.9377 9.8531C91.8131 9.80074 91.6791 9.77531 91.5442 9.77844C91.4073 9.7767 91.2715 9.80267 91.1447 9.85482C91.0179 9.90697 90.9027 9.98424 90.806 10.0821C90.7092 10.1799 90.6328 10.2964 90.5813 10.4245C90.5297 10.5527 90.5041 10.69 90.5059 10.8283H90.5058Z" fill="white"/>
</svg>
