<svg width="23" height="23" viewBox="0 0 18 23" fill="none" xmlns="http://www.w3.org/2000/svg">
<path d="M2.32841 23C2.01775 22.9972 1.712 22.9283 1.43008 22.7978C1.14815 22.6672 0.896675 22.4781 0.693587 22.243C0.441384 21.9506 0.250317 21.61 0.133492 21.242C0.0166682 20.8739 -0.0239215 20.4859 0.0134721 20.1016L1.09366 7.68952C1.11147 7.07621 1.35906 6.49185 1.7865 6.05166C2.21393 5.61147 2.79062 5.34742 3.40314 5.31159H5.1398V4.07698C5.18356 3.13082 5.59869 2.24034 6.29635 1.59971C6.99402 0.959085 7.91761 0.620273 8.86406 0.657166C9.81077 0.619284 10.7339 0.957775 11.4318 1.5986C12.1297 2.23943 12.5455 3.13048 12.5883 4.07698V5.30972H14.2723C14.8846 5.34418 15.461 5.60711 15.8889 6.04655C16.3168 6.48598 16.5654 7.06995 16.5836 7.68302L17.6819 20.0951C17.7207 20.4804 17.6806 20.8695 17.5637 21.2387C17.4468 21.6079 17.2552 21.9493 17.0018 22.2421C16.8 22.4773 16.55 22.6666 16.269 22.7972C15.9879 22.9277 15.6823 22.9966 15.3724 22.9991L2.32841 23ZM2.25203 7.79008L1.81196 12.8178L1.17003 20.2031C1.14682 20.424 1.16806 20.6473 1.23368 20.8595C1.29929 21.0717 1.40806 21.2684 1.55191 21.4376C1.6476 21.5512 1.76538 21.6431 1.89925 21.7073C2.03311 21.7715 2.17999 21.8065 2.32841 21.8101H15.3724C15.5209 21.8065 15.6677 21.7715 15.8016 21.7073C15.9355 21.6431 16.0533 21.5512 16.1489 21.4376C16.2922 21.2681 16.4001 21.0713 16.4653 20.8592C16.5306 20.647 16.5522 20.4238 16.529 20.2031L15.4306 7.78636C15.4313 7.46592 15.3135 7.15657 15.0997 6.91794C14.8858 6.67932 14.5909 6.52831 14.2723 6.49404H12.5883V8.39433C12.6004 8.55113 12.5488 8.70631 12.4465 8.82574C12.3442 8.94516 12.1996 9.01907 12.0428 9.0312C11.8863 9.0186 11.741 8.94449 11.6391 8.82511C11.5372 8.70574 11.487 8.55083 11.4991 8.39433V6.49404H6.23634V8.39433C6.24687 8.55168 6.19407 8.70683 6.09087 8.82608C5.98766 8.94532 5.84258 9.01904 5.68534 9.0312C5.52911 9.01765 5.38366 8.94335 5.28164 8.82426C5.17961 8.70517 5.12921 8.55079 5.1398 8.39433V6.49404H3.40314C3.08358 6.52681 2.78758 6.678 2.57391 6.91786C2.36024 7.15772 2.24416 7.46888 2.2484 7.79008H2.25203ZM11.4991 5.31065V4.07604C11.4326 3.42485 11.1261 2.82183 10.6389 2.3847C10.1517 1.94758 9.51862 1.70775 8.86406 1.71206C8.21031 1.70792 7.57886 1.948 7.09285 2.38527C6.60685 2.82254 6.30106 3.42549 6.23634 4.07604V5.30972L11.4991 5.31065Z" fill="#181817"/>
</svg>
