<svg width="25" height="25" viewBox="0 0 25 25" fill="none" xmlns="http://www.w3.org/2000/svg">
<path d="M0.5 3C2.21429 3 4.35714 3 4.35714 6V22.7143H24.5" stroke="#008526"/>
<circle cx="4.78568" cy="22.7143" r="1.64286" fill="white" stroke="#008526"/>
<path d="M17.3215 8.62505V4.92862C17.3215 4.11166 17.0392 3.32816 16.5369 2.75048C16.0346 2.1728 15.3533 1.84827 14.6429 1.84827C13.9325 1.84827 13.2512 2.1728 12.7488 2.75048C12.2465 3.32816 11.9643 4.11166 11.9643 4.92862V8.62505M20.0757 6.98795L20.9779 16.8451C21.0279 17.3913 20.6565 17.8661 20.1786 17.8661H9.10717C8.99446 17.8663 8.88298 17.8391 8.77999 17.7865C8.67699 17.7339 8.58477 17.6569 8.50933 17.5606C8.43388 17.4643 8.37689 17.3509 8.34206 17.2276C8.30723 17.1043 8.29535 16.974 8.30717 16.8451L9.21002 6.98795C9.23085 6.76087 9.32404 6.5507 9.47163 6.39796C9.61922 6.24522 9.81076 6.16073 10.0093 6.16077H19.2765C19.6879 6.16077 20.0329 6.51809 20.0757 6.98795Z" stroke="#008526" stroke-linecap="round" stroke-linejoin="round"/>
</svg>
