<svg xmlns="http://www.w3.org/2000/svg" width="44" height="44" fill="none" viewBox="0 0 44 44"><path fill="#D8D8D8" d="M0 0h44v44H0z" opacity=".01"/><path fill="#EA4335" d="M39.145 10.964c-4.142-2.407-9.44-.977-11.834 3.193l-6.034 10.522c-1.746 3.038.502 4.1 3.008 5.613l5.807 3.373a4.094 4.094 0 0 0 5.612-1.513l6.204-10.813c2.084-3.634.847-8.277-2.763-10.375Z"/><path fill="#FBBC04" d="m32.317 15.319-5.807-3.374c-3.205-1.79-5.02-1.91-6.337.196l-8.564 14.93c-2.391 4.166-.967 9.496 3.172 11.898 3.61 2.097 8.224.853 10.308-2.78l8.728-15.219c1.14-1.979.466-4.51-1.5-5.651Z"/><path fill="#34A853" d="m33.434 7.644-4.078-2.37c-4.511-2.621-10.28-1.067-12.884 3.473L8.707 22.285c-1.147 1.997-.466 4.553 1.518 5.705l4.568 2.655a4.698 4.698 0 0 0 6.442-1.737l8.871-15.465c1.838-3.204 5.907-4.301 9.09-2.451l-5.761-3.348Z"/><path fill="#4285F4" d="m17.576 12.62-4.41-2.556a4.098 4.098 0 0 0-5.611 1.51l-5.29 9.2c-2.604 4.528-1.06 10.322 3.451 12.935l3.357 1.946 4.07 2.36 1.768 1.023c-3.137-2.113-4.133-6.347-2.215-9.682l1.37-2.381 5.015-8.723a4.135 4.135 0 0 0-1.505-5.631Z"/></svg>