<svg width="18" height="15" viewBox="0 0 18 15" fill="none" xmlns="http://www.w3.org/2000/svg">
<path d="M16.9979 6.47911L9.68049 0.399604C9.36747 0.143549 8.97109 0.00208287 8.56087 2.28198e-05C8.15065 -0.00203723 7.75276 0.13544 7.437 0.388337L0.149225 6.32398C0.10674 6.35823 0.071766 6.40033 0.0463615 6.44781C0.020957 6.4953 0.00563033 6.54721 0.00128338 6.60049C-0.00306358 6.65377 0.00365848 6.70735 0.0210495 6.75809C0.0384406 6.80883 0.0661518 6.8557 0.102558 6.89596C0.177262 6.97751 0.281932 7.02774 0.394354 7.03599C0.506777 7.04425 0.618102 7.00987 0.704711 6.94016L2.03825 5.85426V13.3759C2.04298 13.8103 2.22588 14.2252 2.54683 14.5296C2.86779 14.8341 3.30063 15.0032 3.75049 14.9999H7.01702C7.07253 15.0004 7.12758 14.9903 7.17904 14.9702C7.23051 14.9501 7.27737 14.9204 7.31695 14.8828C7.35653 14.8453 7.38806 14.8005 7.40974 14.7512C7.43142 14.7018 7.44281 14.6488 7.44328 14.5952V10.964C7.45247 10.6158 7.60215 10.2848 7.8604 10.0417C8.11866 9.79858 8.46506 9.66251 8.82572 9.66251C9.18639 9.66251 9.53278 9.79858 9.79104 10.0417C10.0493 10.2848 10.199 10.6158 10.2082 10.964V14.5952C10.2094 14.7036 10.255 14.807 10.3351 14.8829C10.4152 14.9588 10.5231 15.0009 10.6353 14.9999H13.6452C13.8684 15.0018 14.0897 14.9611 14.2966 14.8803C14.5035 14.7995 14.6919 14.6801 14.851 14.529C15.01 14.3778 15.1367 14.1979 15.2238 13.9994C15.3109 13.801 15.3566 13.5879 15.3583 13.3724V6.19225L16.4352 7.08749C16.5208 7.15836 16.6318 7.19405 16.7443 7.18693C16.8569 7.1798 16.9621 7.13042 17.0374 7.04936C17.0742 7.00969 17.1023 6.96332 17.1203 6.91298C17.1383 6.86263 17.1456 6.80933 17.1419 6.7562C17.1383 6.70307 17.1236 6.6512 17.0989 6.60361C17.0741 6.55602 17.0398 6.51369 16.9979 6.47911Z" fill="black"/>
</svg>
