<svg width="25" height="25" viewBox="0 0 25 21" fill="none" xmlns="http://www.w3.org/2000/svg">
<path d="M12.5786 20.1367C12.2532 20.1381 11.931 20.0739 11.631 19.9479C11.3311 19.8219 11.0597 19.6367 10.833 19.4033L2.75639 11.1473C2.012 10.3447 1.479 9.36954 1.20544 8.30964C0.931871 7.24974 0.926341 6.13843 1.18933 5.07585C1.43392 4.04517 1.92594 3.08959 2.62285 2.29181C3.31975 1.49403 4.20055 0.878054 5.18903 0.497189C8.06167 -0.575828 10.9613 0.942033 12.5737 3.09C14.1698 0.933348 17.0665 -0.591268 19.9691 0.497189C20.9575 0.878212 21.8384 1.49422 22.5354 2.29196C23.2324 3.08971 23.7247 4.0452 23.9697 5.07585C24.2324 6.13529 24.2277 7.24339 23.9562 8.3006C23.6847 9.3578 23.1549 10.331 22.4142 11.1328L14.3251 19.4033C14.0983 19.6367 13.8267 19.822 13.5266 19.948C13.2265 20.074 12.904 20.1382 12.5786 20.1367ZM7.1382 1.35888C6.61879 1.35837 6.10356 1.45187 5.61745 1.63486C4.81538 1.94441 4.10091 2.44488 3.53595 3.09291C2.97098 3.74094 2.57257 4.51697 2.37525 5.35375C2.15938 6.22014 2.16195 7.12657 2.38274 7.99172C2.60354 8.85688 3.03563 9.65368 3.64028 10.3107L11.7034 18.5523C11.9376 18.7804 12.2516 18.908 12.5786 18.908C12.9055 18.908 13.2195 18.7804 13.4538 18.5523L21.5294 10.2962C22.1302 9.63995 22.5592 8.84514 22.7781 7.98272C22.997 7.1203 22.999 6.21711 22.7838 5.35375C22.5858 4.51714 22.187 3.74135 21.6219 3.0934C21.0569 2.44545 20.3425 1.94485 19.5406 1.63486C16.9218 0.657371 14.2749 2.3798 13.1131 4.50074C13.0606 4.59588 12.9836 4.67529 12.8902 4.73075C12.7967 4.78622 12.6901 4.81574 12.5815 4.81628C12.4732 4.81602 12.3669 4.78704 12.2735 4.73228C12.1801 4.67753 12.1029 4.59896 12.0498 4.5046C11.5679 3.60421 10.8634 2.84231 10.0034 2.29161C9.14341 1.74091 8.15664 1.41979 7.13725 1.35888H7.1382Z" fill="#202020"/>
</svg>
