<svg xmlns="http://www.w3.org/2000/svg" width="12" height="12" viewBox="0 0 12 12">
    <path data-name="Rectangle 5916" style="fill:transparent" d="M0 0h12v12H0z"/>
    <g data-name="Group 509">
        <circle data-name="Ellipse 1" cx=".486" cy=".486" transform="translate(3.879 4.492)" style="fill:#00bf76" r=".486"/>
        <circle data-name="Ellipse 2" cx=".486" cy=".486" transform="translate(7.147 6.534)" style="fill:#00bf76" r=".486"/>
        <path data-name="Path 257" d="m16.765 6.662-.186-.248a.77.77 0 0 1-.008-.912l.181-.251a.774.774 0 0 0-.276-1.141l-.276-.145a.775.775 0 0 1-.409-.819l.053-.3a.785.785 0 0 0-.753-.91l-.314-.012a.8.8 0 0 1-.733-.563l-.088-.3a.8.8 0 0 0-1.082-.5l-.289.12a.807.807 0 0 1-.908-.2L11.47.259a.806.806 0 0 0-1.195.01L10.07.5a.809.809 0 0 1-.906.209L8.873.591a.8.8 0 0 0-1.073.517l-.083.3a.789.789 0 0 1-.723.573L6.68 2a.784.784 0 0 0-.738.922L6 3.22a.774.774 0 0 1-.4.824l-.274.15a.772.772 0 0 0-.256 1.143l.186.248a.77.77 0 0 1 .008.912l-.181.251a.774.774 0 0 0 .276 1.141l.276.145a.775.775 0 0 1 .409.819l-.053.3a.785.785 0 0 0 .753.91l.314.012a.8.8 0 0 1 .733.563l.088.3a.8.8 0 0 0 1.082.5l.289-.12a.807.807 0 0 1 .908.2l.208.229a.806.806 0 0 0 1.195-.01l.206-.231a.809.809 0 0 1 .906-.209l.291.118a.8.8 0 0 0 1.074-.516l.083-.3a.789.789 0 0 1 .723-.573l.315-.026a.784.784 0 0 0 .738-.922l-.058-.3a.774.774 0 0 1 .4-.824l.274-.15a.771.771 0 0 0 .252-1.142zM8.055 4.98A1.235 1.235 0 1 1 9.29 6.19a1.222 1.222 0 0 1-1.235-1.21zM9.528 8.1a.306.306 0 0 1-.428.04.292.292 0 0 1-.04-.416L12.3 3.9a.306.306 0 0 1 .424-.039.292.292 0 0 1 .04.416zm3.016.125a1.21 1.21 0 1 1 1.235-1.21 1.222 1.222 0 0 1-1.235 1.211z" transform="translate(-4.919)" style="fill:#00bf76"/>
    </g>
</svg>
